<svg id="Группа_1" data-name="Группа 1" xmlns="http://www.w3.org/2000/svg" width="75" height="74" viewBox="0 0 75 74">
  <defs>
    <style>
      .cls-1 {
        fill: #fff;
        stroke: #fed136;
        stroke-linejoin: round;
        stroke-width: 3px;
      }

      .cls-1, .cls-2 {
        fill-rule: evenodd;
      }

      .cls-2 {
        fill: #fed136;
      }
    </style>
  </defs>
  <path id="Circle-2" class="cls-1" d="M699.915,966.2a33.123,33.123,0,1,1-33.122,33.122A33.121,33.121,0,0,1,699.915,966.2Z" transform="translate(-662.5 -962.5)"/>
  <path id="Icon-Laptop" class="cls-2" d="M687.356,982.9h26.908a4.036,4.036,0,0,1,4.036,4.036v17.494a4.037,4.037,0,0,1-4.036,4.03H687.356a4.037,4.037,0,0,1-4.036-4.03V986.936A4.036,4.036,0,0,1,687.356,982.9Zm-4.036,22.87h4.036v2.69H683.32v-2.69Zm30.944,0H718.3v2.69h-4.036v-2.69Zm-26.908-18.834h26.908v24.214H687.356V986.936Zm-4.036,24.214H718.3a2.694,2.694,0,0,1,2.691,2.69c0,1.49-2.551,2.69-4.037,2.69H684.666c-1.486,0-4.036-1.2-4.036-2.69A2.693,2.693,0,0,1,683.32,1011.15Zm13.454,2.69h8.072a0.842,0.842,0,1,1,0,1.35h-8.072A0.842,0.842,0,1,1,696.774,1013.84Zm-5-15.156,1.894-1.9a1.336,1.336,0,0,1,1.894,0l4.735,4.759a1.347,1.347,0,0,1,0,1.9l-1.894,1.9a1.327,1.327,0,0,1-1.894,0l-4.735-4.75A1.354,1.354,0,0,1,691.777,998.684Zm16.167-7.447,1.9,1.9a1.35,1.35,0,0,1,0,1.9l-10.418,10.468a1.346,1.346,0,0,1-1.9,0l-1.894-1.91a1.347,1.347,0,0,1,0-1.9l10.418-10.463A1.334,1.334,0,0,1,707.944,991.237Z" transform="translate(-662.5 -962.5)"/>
</svg>
