<svg id="Группа_2" data-name="Группа 2" xmlns="http://www.w3.org/2000/svg" width="75" height="74" viewBox="0 0 75 74">
  <defs>
    <style>
      .cls-1 {
        fill: #fff;
        stroke: #fed136;
        stroke-linejoin: round;
        stroke-width: 3px;
      }

      .cls-1, .cls-2 {
        fill-rule: evenodd;
      }

      .cls-2 {
        fill: #fed136;
      }
    </style>
  </defs>
  <path id="Circle-3" class="cls-1" d="M1029.96,966.187a33.122,33.122,0,1,1-33.125,33.122A33.122,33.122,0,0,1,1029.96,966.187Z" transform="translate(-992.5 -962.5)"/>
  <path id="Icon-Locked" class="cls-2" d="M1029.68,978.633c5.16,0,9.34,3.656,9.34,8.166v19.831c0,4.51-4.18,8.17-9.34,8.17s-9.33-3.66-9.33-8.17V986.8C1020.35,982.289,1024.53,978.633,1029.68,978.633Zm0,4.666c2.58,0,4.67,1.568,4.67,3.5v8.166c0,1.934-2.09,3.5-4.67,3.5s-4.66-1.566-4.66-3.5V986.8C1025.02,984.867,1027.11,983.3,1029.68,983.3Zm-10.49,12.833h20.99a3.5,3.5,0,0,1,3.5,3.5v12.827a3.5,3.5,0,0,1-3.5,3.51h-20.99a3.5,3.5,0,0,1-3.5-3.51V999.633A3.5,3.5,0,0,1,1019.19,996.132Zm10.49,5.838a2.334,2.334,0,0,1,2.34,2.33v5.83a2.335,2.335,0,0,1-4.67,0v-5.83A2.332,2.332,0,0,1,1029.68,1001.97Zm0-2.337a4.669,4.669,0,1,1-4.66,4.667A4.666,4.666,0,0,1,1029.68,999.633Z" transform="translate(-992.5 -962.5)"/>
</svg>
