<svg id="Группа_2" data-name="Группа 2" xmlns="http://www.w3.org/2000/svg" width="75" height="74" viewBox="0 0 75 74">
  <defs>
    <style>
      .cls-1 {
        fill: #fff;
        stroke: #fed136;
        stroke-linejoin: round;
        stroke-width: 3px;
      }

      .cls-1, .cls-2 {
        fill-rule: evenodd;
      }

      .cls-2 {
        fill: #fed136;
      }
    </style>
  </defs>
  <path id="Circle-1" class="cls-1" d="M370.033,966.189a33.121,33.121,0,1,1-33.122,33.122A33.122,33.122,0,0,1,370.033,966.189Z" transform="translate(-332.5 -962.5)"/>
  <path id="Icon-Basket" class="cls-2" d="M353.508,996.331h33.04l-1.271,22.029h-30.5Zm0.689-6.883H385.86a3.442,3.442,0,1,1,0,6.883H354.2A3.442,3.442,0,1,1,354.2,989.448Zm-2.065,6.883h35.793v1.377H352.132v-1.377Zm17.9,6.879a1.38,1.38,0,0,1,1.377,1.38v8.26a1.377,1.377,0,1,1-2.753,0v-8.26A1.379,1.379,0,0,1,370.028,1003.21Zm8.26,0a1.38,1.38,0,0,1,1.377,1.38v8.26a1.377,1.377,0,1,1-2.754,0v-8.26A1.38,1.38,0,0,1,378.288,1003.21Zm-16.52,0a1.38,1.38,0,0,1,1.377,1.38v8.26a1.377,1.377,0,1,1-2.753,0v-8.26A1.379,1.379,0,0,1,361.768,1003.21Zm12.046-22.569a2.752,2.752,0,0,1,3.761,1.008l4.13,7.153a2.753,2.753,0,1,1-4.769,2.753l-4.13-7.153A2.754,2.754,0,0,1,373.814,980.641Zm-7.572,0a2.753,2.753,0,0,0-3.761,1.008l-4.13,7.153a2.753,2.753,0,1,0,4.769,2.753l4.13-7.153A2.754,2.754,0,0,0,366.242,980.641Z" transform="translate(-332.5 -962.5)"/>
</svg>
